<svg fill="#4a90e2" xmlns="http://www.w3.org/2000/svg"  viewBox="0 0 64 64" width="48px" height="48px"><path d="M 31.904297 3.6308594 C 30.698301 3.7264258 29.670312 4.4758594 29.539062 5.6308594 C 29.439062 6.6108594 27.979453 25.520391 27.939453 26.150391 C 27.899453 26.780391 27.009453 27.040391 26.689453 26.150391 C 26.359453 25.260391 22.929063 10.699375 22.539062 9.109375 C 22.159062 7.509375 20.639219 7.280625 19.699219 7.390625 C 18.759219 7.510625 17.570937 8.4007812 17.710938 9.8007812 C 17.790937 10.550781 19.220938 21.640937 20.460938 31.210938 C 21.430937 30.380938 22.670703 29.869297 23.970703 29.779297 L 33.929688 29.140625 C 34.329688 19.410625 34.870391 7.2602344 34.900391 6.2402344 C 34.930391 4.5602344 33.859687 3.7408594 32.429688 3.6308594 C 32.252187 3.6171094 32.076582 3.617207 31.904297 3.6308594 z M 39.451172 23.015625 C 37.848609 22.892373 36.8145 23.847359 36.5625 25.005859 C 36.2745 26.329859 35.317828 33.030172 35.048828 34.701172 C 34.779828 36.372172 35.441578 37.444563 36.517578 37.726562 C 37.310578 37.933562 38.462906 37.490281 39.128906 35.738281 C 39.434906 34.932281 42.386719 26.383813 42.386719 26.382812 C 42.809719 25.014813 41.408875 23.452719 40.171875 23.136719 C 39.920375 23.072594 39.680109 23.033232 39.451172 23.015625 z M 46.947266 26.464844 C 45.712156 26.36875 44.773844 27.043563 44.371094 27.976562 C 43.834094 29.219562 41.846719 34.678578 41.261719 36.267578 C 40.676719 37.856578 41.119094 39.036531 42.121094 39.519531 C 42.860094 39.874531 44.076406 39.660359 45.066406 38.068359 C 45.521406 37.336359 49.823219 30.447266 49.824219 30.447266 C 50.501219 29.185266 49.426437 27.384891 48.273438 26.837891 C 47.804437 26.615391 47.358969 26.496875 46.947266 26.464844 z M 32.271484 31.253906 L 24.095703 31.78125 C 23.019703 31.85125 22.016453 32.351875 21.314453 33.171875 L 16.210938 39.134766 C 15.277937 40.224766 15.074359 41.763594 15.693359 43.058594 L 20.566406 53.253906 C 20.956403 54.266866 21.435986 55.292682 22.029297 56.320312 L 22.033203 56.320312 L 22.035156 56.324219 L 22.037109 56.320312 L 42.460938 57.980469 C 42.460938 57.980469 47.080859 54.850547 47.630859 47.810547 C 47.960859 43.590547 48.570312 36.230469 48.570312 36.230469 C 47.700312 37.610469 46.939766 38.839141 46.759766 39.119141 C 45.759766 40.739141 44.309063 41.669922 42.789062 41.669922 C 42.249063 41.669922 41.72 41.550312 41.25 41.320312 C 40.34 40.880313 39.580703 40.060938 39.220703 38.960938 C 38.540703 39.480937 37.740625 39.769531 36.890625 39.769531 C 36.590625 39.769531 36.299766 39.740156 36.009766 39.660156 C 34.639766 39.310156 33.380781 38.169844 33.050781 36.339844 C 31.890781 37.579844 29.610391 39.270547 26.400391 39.810547 L 25.349609 41.650391 L 26.240234 44.220703 L 25.164062 44.902344 L 23.005859 41.912109 L 25.492188 37.785156 C 31.150188 37.261156 32.365484 34.822906 32.271484 31.253906 z"/></svg>