<svg fill="#4a90e2" xmlns="http://www.w3.org/2000/svg"  viewBox="0 0 24 24" width="48px" height="48px"><path d="M 21.5 0 C 20.1875 0 19.15625 0.976563 19.03125 2.25 C 16.644531 1.464844 12.898438 2.085938 9.3125 5.59375 C 7.613281 7.394531 3.601563 6.992188 2.5 8.09375 C 1.398438 9.195313 1.613281 12.894531 6.3125 17.59375 C 11.011719 22.292969 14.710938 22.507813 15.8125 21.40625 C 16.914063 20.304688 16.601563 16.6875 18.5 14.6875 C 21.96875 11.21875 22.515625 7.410156 21.71875 4.96875 C 23.007813 4.855469 24 3.824219 24 2.5 C 24 1.101563 22.898438 0 21.5 0 Z M 21.5 1.5 C 22.101563 1.5 22.5 1.898438 22.5 2.5 C 22.5 3.101563 22.101563 3.5 21.5 3.5 C 20.898438 3.5 20.5 3.101563 20.5 2.5 C 20.5 2.199219 20.613281 2.011719 20.8125 1.8125 C 21.011719 1.613281 21.199219 1.5 21.5 1.5 Z M 16.78125 3.84375 C 17.378906 3.792969 18.0625 3.867188 18.8125 4.09375 C 15.914063 3.894531 12.207031 8.488281 10.90625 10.1875 C 9.90625 11.386719 8.289063 12.707031 6.1875 12.90625 C 4.488281 11.90625 4.6875 10.59375 4.6875 10.59375 C 4.6875 10.59375 6.992188 10.894531 10.09375 8.59375 C 12.773438 6.5625 14.195313 4.0625 16.78125 3.84375 Z M 6.90625 20.09375 C 6.40625 20.492188 6 21.113281 6 21.8125 C 6 23.011719 6.992188 24 8.09375 24 C 9.09375 24 9.988281 23.3125 10.1875 22.3125 C 9.289063 21.8125 8.105469 21.195313 6.90625 20.09375 Z"/></svg>