<svg fill="#4a90e2" xmlns="http://www.w3.org/2000/svg"  viewBox="0 0 50 50" width="48px" height="48px"><path d="M 40.25 0 C 39.902344 -0.0117188 39.566406 0.15625 39.375 0.46875 L 37.78125 3.0625 C 37.242188 3.019531 36.722656 3.015625 36.1875 3.0625 L 34.5625 0.5 C 34.300781 0.0859375 33.761719 -0.0625 33.3125 0.125 L 30.5 1.3125 C 30.054688 1.5 29.796875 1.996094 29.90625 2.46875 L 30.59375 5.4375 C 30.179688 5.792969 29.789063 6.175781 29.4375 6.59375 L 26.46875 5.90625 C 25.984375 5.796875 25.527344 6.078125 25.34375 6.53125 L 24.1875 9.375 C 24.003906 9.824219 24.152344 10.335938 24.5625 10.59375 L 27.125 12.1875 C 27.082031 12.730469 27.105469 13.300781 27.15625 13.84375 L 24.59375 15.4375 C 24.179688 15.699219 24.027344 16.238281 24.21875 16.6875 L 25.40625 19.5 C 25.59375 19.945313 26.058594 20.207031 26.53125 20.09375 L 29.5 19.4375 C 29.851563 19.847656 30.238281 20.214844 30.65625 20.5625 L 30 23.53125 C 29.894531 24.007813 30.140625 24.503906 30.59375 24.6875 L 33.4375 25.84375 C 33.558594 25.894531 33.6875 25.90625 33.8125 25.90625 C 34.148438 25.90625 34.46875 25.734375 34.65625 25.4375 L 36.3125 22.84375 C 36.855469 22.882813 37.402344 22.863281 37.9375 22.8125 L 39.59375 25.40625 C 39.859375 25.8125 40.367188 25.96875 40.8125 25.78125 L 43.65625 24.59375 C 44.109375 24.402344 44.332031 23.914063 44.21875 23.4375 L 43.5 20.46875 C 43.902344 20.121094 44.28125 19.722656 44.625 19.3125 L 47.625 19.96875 C 48.109375 20.074219 48.597656 19.824219 48.78125 19.375 L 49.9375 16.53125 C 50.121094 16.074219 49.949219 15.535156 49.53125 15.28125 L 46.90625 13.6875 C 46.945313 13.15625 46.953125 12.625 46.90625 12.09375 L 49.46875 10.40625 C 49.875 10.144531 50.0625 9.632813 49.875 9.1875 L 48.65625 6.375 C 48.46875 5.925781 47.984375 5.667969 47.5 5.78125 L 44.53125 6.5 C 44.179688 6.089844 43.820313 5.722656 43.40625 5.375 L 44.03125 2.375 C 44.132813 1.898438 43.886719 1.402344 43.4375 1.21875 L 40.59375 0.0625 C 40.480469 0.015625 40.367188 0.00390625 40.25 0 Z M 37 8.875 C 37.53125 8.867188 38.070313 8.945313 38.59375 9.15625 C 40.6875 10.007813 41.695313 12.40625 40.84375 14.5 C 39.992188 16.59375 37.59375 17.601563 35.5 16.75 C 33.40625 15.898438 32.398438 13.5 33.25 11.40625 C 33.890625 9.835938 35.40625 8.898438 37 8.875 Z M 14.53125 17 C 14.042969 17 13.609375 17.359375 13.53125 17.84375 L 12.90625 21.78125 C 12.164063 22.007813 11.429688 22.296875 10.75 22.65625 L 7.5 20.34375 C 7.101563 20.058594 6.566406 20.09375 6.21875 20.4375 L 3.46875 23.1875 C 3.125 23.53125 3.097656 24.070313 3.375 24.46875 L 5.65625 27.75 C 5.289063 28.4375 4.980469 29.160156 4.75 29.90625 L 0.84375 30.53125 C 0.359375 30.613281 0 31.042969 0 31.53125 L 0 35.40625 C 0 35.890625 0.335938 36.320313 0.8125 36.40625 L 4.75 37.09375 C 4.980469 37.839844 5.289063 38.5625 5.65625 39.25 L 3.34375 42.5 C 3.058594 42.898438 3.089844 43.433594 3.4375 43.78125 L 6.1875 46.53125 C 6.53125 46.875 7.070313 46.902344 7.46875 46.625 L 10.75 44.34375 C 11.433594 44.707031 12.132813 44.992188 12.875 45.21875 L 13.53125 49.15625 C 13.609375 49.636719 14.042969 50 14.53125 50 L 18.40625 50 C 18.890625 50 19.320313 49.664063 19.40625 49.1875 L 20.09375 45.1875 C 20.835938 44.957031 21.539063 44.675781 22.21875 44.3125 L 25.53125 46.625 C 25.929688 46.902344 26.46875 46.875 26.8125 46.53125 L 29.5625 43.78125 C 29.910156 43.433594 29.941406 42.867188 29.65625 42.46875 L 27.3125 39.21875 C 27.671875 38.539063 27.960938 37.824219 28.1875 37.09375 L 32.1875 36.40625 C 32.667969 36.320313 33 35.890625 33 35.40625 L 33 31.53125 C 33 31.042969 32.640625 30.640625 32.15625 30.5625 L 28.1875 29.90625 C 27.960938 29.175781 27.671875 28.460938 27.3125 27.78125 L 29.625 24.46875 C 29.902344 24.070313 29.875 23.53125 29.53125 23.1875 L 26.78125 20.4375 C 26.433594 20.089844 25.898438 20.058594 25.5 20.34375 L 22.21875 22.6875 C 21.535156 22.324219 20.832031 22.039063 20.09375 21.8125 L 19.40625 17.84375 C 19.324219 17.363281 18.890625 17 18.40625 17 Z M 16.5 28.34375 C 19.355469 28.34375 21.65625 30.644531 21.65625 33.5 C 21.65625 36.355469 19.351563 38.65625 16.5 38.65625 C 13.648438 38.65625 11.34375 36.355469 11.34375 33.5 C 11.34375 30.644531 13.644531 28.34375 16.5 28.34375 Z"/></svg>