<svg fill="#4a90e2" xmlns="http://www.w3.org/2000/svg"  viewBox="0 0 64 64" width="48px" height="48px"><path d="M 6 1 C 6 11.838085 11.021934 18.482369 15.023438 22.072266 L 13.363281 52.892578 C 13.301281 54.037578 14.212375 55 15.359375 55 L 21 55 C 21 52.5 20 52 20 52 L 22.792969 34.859375 C 22.792969 34.859375 28.664984 39.941406 36.333984 39.941406 L 37.810547 46.371094 C 37.856547 46.571094 37.933109 46.764406 38.037109 46.941406 L 43 55 L 49 55 C 49 52.5 47 51.5 47 51.5 L 44.181641 45.226562 L 43.5 39.955078 C 47.504 37.843078 49.651156 34.582047 50.785156 31.998047 L 46.5 31.998047 C 45.278 31.998047 44.102 31.777578 43 31.392578 L 43 29.265625 C 44.068316 29.731863 45.250955 30 46.5 30 C 51.194 30 55 26.292 55 22 C 55 14 53 13 53 13 C 51 14 50 16 50 16 L 43 16 C 43 16 42 14 40 13 C 40 13 38 14 38 22 C 38 23.022756 38.22248 24.009667 38.615234 24.923828 C 31.737856 24.177583 29.517017 18 22 18 C 20.889006 18 19.902007 18.243146 19.044922 18.609375 C 15.268386 16.06324 9.799726 11.023947 9.078125 2.8261719 C 8.987125 1.7931719 8.1268437 1 7.0898438 1 L 6 1 z M 43 21 C 44.105 21 45 21.895 45 23 C 45 24.105 44.105 25 43 25 C 41.895 25 41 24.105 41 23 C 41 21.895 41.895 21 43 21 z M 50 21 C 51.105 21 52 21.895 52 23 C 52 24.105 51.105 25 50 25 C 48.895 25 48 24.105 48 23 C 48 21.895 48.895 21 50 21 z M 50.130859 36.955078 C 48.987859 38.414078 47.539297 39.831531 45.654297 41.019531 L 46.126953 44.675781 L 48.580078 50.138672 C 49.688078 50.962672 51 52.583 51 55 L 57 55 C 57 52.5 55 52 55 52 L 51.1875 44.732422 L 50.130859 36.955078 z M 24.255859 38.326172 L 22.126953 51.388672 C 22.593953 52.121672 23 53.259 23 55 L 29 55 C 29 52.5 28 52 28 52 L 27.921875 40.177734 C 26.497875 39.587734 25.251859 38.930172 24.255859 38.326172 z"/></svg>