<svg xmlns="http://www.w3.org/2000/svg"  viewBox="0 0 48 48" width="48px" height="48px"><path fill="#1565c0" d="M46 23.087L45.791 22.471 44.95 21.534 44.728 20.64 44.229 19.928 44 18.375 44 14 42.625 14 42.012 13.607 40.5 13 38 13 36.625 13.5 36.26 13.957 35.625 13 34 13 33 14 32.431 13.51 32.238 13.068 31.448 12.815 31.07 13.434 30.653 13.337 30.462 12.937 29.951 12.218 29.25 12 29 13 28.494 12.363 27.573 12 27 12 27 11 26.083 10.772 25.167 10.772 24.25 10.315 24 3 14 3 14 21 2 21 2.171 21.664 2.524 21.728 3.02 22.222 3.332 22.99 4.197 23.342 4.466 23.909 5.415 25.023 5.665 25.299 6.587 25.619 6.814 25.984 7.114 26.139 7.233 26.628 8 27.995 8 29.25 10.321 31.433 11.271 31.751 11.619 32.196 12.354 32.772 13.5 33 14.575 31.987 14.705 31.307 15.073 30.699 15.75 30.207 16.625 30 18.375 30 19.375 30.75 20 31.543 22 33 22.75 33.5 23 35 24.212 36.263 25.406 37.805 26 38 27 39 27 40.875 27.295 41.261 27.602 42.41 28.024 43.084 29.156 43.63 30.625 44 31.138 44.338 31.825 44.338 33.222 44.619 34.017 45 35 44 34.427 43.63 34.106 42.774 33.173 41.427 33 41 33 40.125 33.5 38.75 34.511 37.79 34.083 37.467 34.234 37.107 34.602 36.957 35.232 35.922 35.832 35.766 36.875 34.625 39 33 40 32.875 41.765 31.346 42.565 30.681 42.716 30.32 44.428 29.39 46 29 46 27 45 26 46 25z"/></svg>